<svg xmlns="http://www.w3.org/2000/svg" fill="none" style="width:40px;height:40px" viewBox="0 0 20 20"><rect width="20" height="20" fill="#ec0928" rx="10"/><path fill="#fff" fill-rule="evenodd" d="M4.807 4.73a.5.5 0 0 1 .477-.174l7.79 1.427a.5.5 0 0 1 .247.122l1.969 1.798a.5.5 0 0 1 .048.687l-5.735 6.962a.5.5 0 0 1-.851-.134L4.729 5.231a.5.5 0 0 1 .078-.5zM7.01 5.89l3.051 2.497 1.82-1.605-4.87-.892zm5.968 1.257-1.286 1.135 2.155-.34zm.75 1.826-3.21.507-.564 4.074zM8.983 13.28l.556-4.028-3.174-2.599z" clip-rule="evenodd"/></svg>