<svg xmlns="http://www.w3.org/2000/svg" fill="none" viewBox="0 0 40 40"><rect width="40" height="40" fill="#009393" rx="20"/><path fill="#fff" fill-rule="evenodd" d="M20.024 21.43c3.44 0 6.314-.582 7.017-1.359-.596-.659-2.754-1.178-5.494-1.32v1.641q-.737.039-1.523.038-.786 0-1.524-.038v-1.641c-2.739.142-4.898.661-5.494 1.32.704.777 3.578 1.358 7.018 1.358zm6.111-7.727v2.26h-4.588v1.568c3.223.168 5.642.857 5.66 1.681v1.719c-.018.825-2.437 1.512-5.66 1.68v3.847H18.5v-3.847c-3.223-.168-5.64-.855-5.658-1.68v-1.719c.018-.825 2.435-1.514 5.658-1.681v-1.567h-4.588v-2.261zm-14.028-3.598h16.108c.386 0 .74.203.932.532l4.693 8.058c.242.418.17.945-.177 1.284L20.747 32.588a1.083 1.083 0 0 1-1.51 0L6.335 19.996a1.05 1.05 0 0 1-.16-1.31l5.016-8.074a1.08 1.08 0 0 1 .916-.506z" clip-rule="evenodd"/></svg>